<svg width="79" height="43" viewBox="0 0 79 43" fill="none" xmlns="http://www.w3.org/2000/svg">
<rect width="33" height="12" fill="url(#paint0_linear_165_680)"/>
<g clip-path="url(#clip0_165_680)">
<g clip-path="url(#clip1_165_680)">
<path d="M8.475 6.8999C7.8 7.3499 7.2 7.8749 6.75 8.4749V8.3999C7.05 8.0249 7.275 7.6499 7.5 7.2749C7.8 7.1249 8.025 6.8999 8.25 6.6749C8.625 6.2999 9 5.9249 9.525 5.6999C9.75 5.6249 9.9 5.6249 10.125 5.6999C10.05 5.7749 9.975 5.7749 9.825 5.8499H9.75V5.7749C9.525 5.9999 9.225 6.1499 9 6.4499C8.925 6.5999 8.85 6.8999 8.475 6.8999C8.55 6.8999 8.475 6.9749 8.475 6.8999ZM9.675 10.3499C9.675 10.2749 9.6 10.3499 9.525 10.3499L9.45 10.4249L9.375 10.4999L9.225 10.6499C9.225 10.6499 9.3 10.7249 9.375 10.6499L9.45 10.5749C9.525 10.5749 9.6 10.4999 9.6 10.4249C9.675 10.4249 9.675 10.4249 9.675 10.3499ZM8.475 7.1249C8.55 7.1249 8.625 7.1249 8.625 7.0499C8.625 6.9749 8.7 6.9749 8.7 6.9749V6.8999C8.55 6.9749 8.475 7.0499 8.475 7.1249ZM10.275 8.5499C10.35 8.4749 10.425 8.4749 10.5 8.4749C11.025 8.3999 11.55 8.2499 12.075 8.0249C11.475 7.6499 10.8 7.3499 10.125 7.2749H10.2C10.125 7.1999 9.975 7.1999 9.825 7.1249H9.9C9.75 7.0499 9.525 7.0499 9.375 6.9749C9.45 6.9749 9.525 6.8249 9.525 6.7499H9.45C9.15 6.8999 9 7.1249 8.85 7.4249C9 7.4999 9.225 7.4249 9.375 7.4999H9.15C9.075 7.4999 9 7.5749 9 7.6499H9.075C9 7.6499 9 7.7249 8.925 7.7249C9 7.7999 9.075 7.7249 9.225 7.7249C9.225 7.7999 9.3 7.7999 9.3 7.7999C9.225 7.7999 9.15 7.8749 9.075 8.0249C9 8.1749 8.925 8.1749 8.85 8.2499V8.3249C8.625 8.4749 8.4 8.6999 8.175 8.9249V8.9999C8.1 9.0749 8.025 9.0749 8.025 9.1499V9.2249C8.325 9.1499 8.475 8.9249 8.775 8.8499L9.225 8.6249C9.375 8.6249 9.45 8.5499 9.6 8.5499V8.6249H9.75C9.75 8.6999 9.6 8.6249 9.675 8.6999C9.75 8.7749 9.9 8.7749 9.975 8.6999C10.125 8.5499 10.2 8.5499 10.275 8.5499ZM9.3 9.7499C9 9.8999 8.625 9.8999 8.4 10.0499C8.4 10.0499 8.4 10.1249 8.325 10.1249C8.325 10.1249 8.25 10.1249 8.25 10.1999C8.175 10.1999 8.175 10.2749 8.1 10.3499L8.025 10.4249C8.025 10.4249 8.025 10.4999 8.1 10.4249L8.175 10.3499C8.175 10.3499 8.1 10.4249 8.1 10.4999V10.7249L8.025 10.7999C8.025 10.7999 8.025 10.8749 7.95 10.8749L7.875 10.9499L8.025 10.7999L8.1 10.7249H8.25C8.25 10.7249 8.25 10.6499 8.325 10.6499C8.4 10.5749 8.475 10.4999 8.55 10.4999H8.625C8.7 10.4249 8.85 10.4249 8.925 10.3499C9 10.2749 9.075 10.1999 9.15 10.1999C9.3 10.0499 9.525 9.9749 9.75 9.8249C9.675 9.8249 9.6 9.7499 9.525 9.7499C9.525 9.8249 9.375 9.7499 9.3 9.7499ZM22.5 6.5249C22.425 6.6749 22.2 6.6749 22.05 6.7499C21.9 6.8999 22.05 7.0499 22.125 7.1249C22.2 7.3499 21.975 7.4999 21.825 7.4999C21.9 7.5749 21.975 7.5749 21.975 7.5749C21.975 7.7249 22.125 7.7249 22.05 7.8749C21.975 8.0249 21.675 8.0999 21.825 8.2499C21.9 8.3999 21.9 8.6249 21.825 8.7749C21.75 8.9249 21.6 9.0749 21.45 9.1499C21.3 9.2249 21.15 9.2249 21 9.1499C20.925 9.1499 20.925 9.0749 20.85 9.0749C20.475 8.9999 20.1 8.9249 19.725 8.9249C19.65 8.9249 19.5 8.9999 19.425 8.9999C19.35 9.0749 19.2 9.1499 19.125 9.2249L19.05 9.2999C18.975 9.3749 18.9 9.4499 18.9 9.5249C18.825 9.6749 18.75 9.8249 18.75 9.9749C18.6 10.3499 18.6 10.7249 18.75 11.0249C18.75 11.0249 19.5 11.2499 20.025 11.4749C20.175 11.5499 20.4 11.6249 20.55 11.7749L21.825 12.5249H9.9L11.1 11.7749C11.55 11.4749 12.075 11.2499 12.6 11.0249C12.975 10.8749 13.425 10.6499 13.725 10.3499C13.875 10.1999 13.95 10.0499 14.1 9.9749C14.325 9.6749 14.55 9.4499 14.85 9.2249L15.075 8.9999C15.075 8.9999 15.075 8.9249 15.15 8.9249C15 8.9999 15 9.0749 14.85 9.0749C14.85 9.0749 14.775 9.0749 14.85 8.9999C14.925 8.9249 15 8.8499 15.075 8.8499V8.7749C14.775 8.7749 14.55 8.9249 14.325 9.1499H14.175C13.8 9.2999 13.575 9.5249 13.275 9.6749V9.5999C13.125 9.6749 12.975 9.7499 12.9 9.7499C12.75 9.7499 12.525 9.8249 12.3 9.7499C12 9.7499 11.775 9.8249 11.475 9.8999C11.325 9.9749 11.175 9.9749 11.025 10.0499V10.1249L10.875 10.2749C10.725 10.3499 10.65 10.4249 10.5 10.5749L10.125 10.9499H10.05L10.125 10.8749L10.2 10.7999C10.2 10.7249 10.275 10.7249 10.275 10.6499C10.425 10.5749 10.5 10.4249 10.65 10.3499C10.65 10.3499 10.65 10.2749 10.725 10.2749L10.65 10.3499C10.575 10.4249 10.575 10.4999 10.5 10.4999V10.4249V10.3499L10.65 10.1999C10.725 10.1249 10.8 10.1249 10.875 10.0499H10.95C10.8 10.1249 10.725 10.1249 10.575 10.1999H10.5H10.425C10.425 10.1249 10.5 10.1249 10.575 10.0499H10.65C11.4 9.4499 12.375 9.5999 13.2 9.2999C13.275 9.2249 13.35 9.2249 13.425 9.1499C13.5 9.0749 13.65 8.9999 13.8 8.9249C13.95 8.7749 14.1 8.6249 14.175 8.3999V8.3249C13.875 8.6249 13.575 8.8499 13.2 9.0749C12.75 9.2249 12.225 9.3749 11.7 9.3749C11.7 9.2999 11.775 9.2999 11.775 9.2999C11.775 9.2249 11.85 9.2249 11.85 9.1499H11.925C11.925 9.1499 11.925 9.0749 12 9.0749H12.075C12 8.9999 11.85 9.1499 11.775 9.0749C11.85 8.9999 11.775 8.9249 11.85 8.9249H11.925C11.925 8.9249 11.925 8.8499 12 8.8499C12.375 8.6249 12.675 8.4749 12.975 8.3249C12.9 8.3249 12.9 8.3999 12.825 8.3249C12.9 8.3249 12.825 8.2499 12.9 8.2499C13.125 8.1749 13.35 8.0249 13.575 7.9499C13.5 7.9499 13.425 8.0249 13.35 7.9499C13.425 7.9499 13.425 7.8749 13.5 7.8749V7.7999C13.5 7.7249 13.575 7.7999 13.65 7.7249H13.575C13.65 7.6499 13.725 7.5749 13.875 7.5749C13.875 7.4999 13.8 7.5749 13.8 7.4999H13.875H13.5C13.425 7.4999 13.5 7.4249 13.5 7.4249C13.575 7.2749 13.65 7.0499 13.725 6.8999H13.65C13.425 7.1249 13.05 7.2749 12.75 7.3499H12.6C12.45 7.4249 12.3 7.4249 12.225 7.3499C12.15 7.2749 12.075 7.1999 12 7.1999C11.85 7.1249 11.625 6.9749 11.4 6.8999C10.875 6.7499 10.275 6.5999 9.675 6.6749C9.9 6.5999 10.2 6.5249 10.5 6.4499C10.875 6.2999 11.25 6.2249 11.625 6.2249H11.4C11.1 6.2249 10.725 6.2999 10.425 6.3749C10.2 6.4499 9.975 6.5249 9.75 6.5249C9.6 6.5999 9.525 6.6749 9.375 6.6749V6.5999C9.6 6.2999 9.9 6.0749 10.2 5.9999C10.575 5.9249 11.025 5.9999 11.4 6.0749C11.7 6.0749 12 6.1499 12.225 6.2249C12.3 6.2249 12.375 6.3749 12.45 6.4499C12.6 6.5249 12.75 6.4499 12.825 6.5249V6.3749C12.9 6.2999 13.05 6.3749 13.125 6.3749C13.275 6.2249 12.975 6.0749 12.9 5.9249V5.8499C13.05 5.9999 13.275 6.1499 13.425 6.2999C13.5 6.3749 13.8 6.4499 13.8 6.2999C13.65 6.0749 13.5 5.8499 13.275 5.6249V5.4749C13.2 5.4749 13.2 5.4749 13.2 5.3999C13.125 5.3249 13.125 5.2499 13.125 5.1749C13.05 5.0249 13.125 4.8749 13.05 4.7999C12.975 4.6499 12.975 4.5749 12.975 4.4249C12.9 4.0499 12.825 3.6749 12.75 3.3749C12.675 2.9249 12.975 2.6249 13.2 2.2499C13.35 1.9499 13.575 1.7249 13.8 1.4999C13.875 1.1999 14.025 0.974902 14.25 0.749902C14.475 0.524902 14.7 0.374902 14.925 0.299902C15.15 0.224902 15.3 0.149902 15.525 0.0749024L17.4 -0.225098H18.75L20.1 -9.76473e-05C20.175 -9.76473e-05 20.25 -9.76324e-05 20.25 0.0749024C20.325 0.149902 20.475 0.224902 20.55 0.224902C20.7 0.299902 20.85 0.449902 21 0.599902C21.075 0.674902 21.15 0.824902 21.075 0.899902C21 0.974902 21 1.1999 20.925 1.1999C20.775 1.2749 20.625 1.2749 20.475 1.2749C20.4 1.2749 20.325 1.2749 20.175 1.1999C20.55 1.3499 20.85 1.4999 21.075 1.7999C21.075 1.8749 21.225 1.8749 21.3 1.8749V1.9499C21.225 2.0249 21.225 2.0249 21.225 2.0999H21.3C21.375 2.0249 21.375 1.7999 21.525 1.8749C21.675 1.9499 21.675 2.0999 21.6 2.1749C21.525 2.2499 21.45 2.3249 21.3 2.3999V2.5499C21.375 2.6249 21.375 2.6999 21.45 2.8499C21.525 2.9999 21.525 3.2249 21.6 3.3749C21.675 3.7499 21.75 4.0499 21.75 4.4249C21.75 4.5749 21.675 4.7999 21.75 4.9499L21.975 5.3999C22.05 5.5499 22.125 5.6249 22.2 5.7749C22.35 5.9999 22.65 6.2249 22.5 6.5249ZM10.8 10.4249C10.725 10.4249 10.725 10.4999 10.725 10.4999C10.725 10.4999 10.8 10.4999 10.8 10.4249ZM10.125 8.9249C10.125 8.9999 10.2 8.9249 10.2 8.9249C10.35 8.8499 10.575 8.9249 10.65 8.7749C10.575 8.6999 10.5 8.7749 10.5 8.6999C10.425 8.6999 10.35 8.6999 10.35 8.7749C10.275 8.8499 10.125 8.8499 10.125 8.9249Z" fill="white"/>
<path d="M20.925 4.3501C21 4.3501 21.15 4.3501 21.15 4.4251C21.075 4.5751 20.85 4.6501 20.7 4.8001H20.625C20.55 4.8751 20.55 4.9501 20.55 4.9501H20.325C20.4 5.0251 20.55 5.1001 20.7 5.1001L20.775 5.1751H20.925V5.2501C20.85 5.3251 20.775 5.3251 20.625 5.3251C20.775 5.4001 21 5.4001 21.15 5.3251C21.3 5.2501 21.15 5.0251 21.225 4.9501C21.15 4.9501 21.225 4.8751 21.15 4.8751C21.225 4.8001 21.225 4.7251 21.3 4.7251C21.375 4.7251 21.375 4.7251 21.45 4.6501C21.45 4.5751 21.375 4.5751 21.375 4.5001C21.525 4.4251 21.6 4.2751 21.6 4.1251C21.6 4.0501 21.375 4.0501 21.3 3.9751H20.925C20.775 3.9751 20.7 4.0501 20.55 4.0501L20.1 4.2751C20.25 4.2001 20.4 4.2001 20.625 4.1251C20.625 4.3501 20.775 4.3501 20.925 4.3501Z" fill="#808080"/>
</g>
</g>
<path d="M1.2978 27V18.18H3.9942C5.9346 18.18 7.1316 19.1754 7.1316 20.8134C7.1316 21.8844 6.615 22.6782 5.7078 23.094L8.4672 27H6.363L4.0068 23.4342H3.087V27H1.2978ZM4.095 19.6668H3.087V21.9474H4.095C4.851 21.9474 5.292 21.5064 5.292 20.7882C5.292 20.1204 4.851 19.6668 4.095 19.6668ZM12.9647 17.424H11.3393L12.7631 15.723H14.6027L12.9647 17.424ZM9.60051 27V18.18H14.7413V19.6668H11.3897V21.7584H14.2373V23.2452H11.3897V25.5132H14.7413V27H9.60051ZM16.8204 27V18.18H19.731C21.6714 18.18 22.8558 19.1754 22.8558 20.8134C22.8558 22.4388 21.6714 23.4342 19.731 23.4342H18.6096V27H16.8204ZM19.8066 19.6668H18.6096V21.9474H19.8066C20.5626 21.9474 21.0162 21.5064 21.0162 20.7882C21.0162 20.1204 20.5626 19.6668 19.8066 19.6668ZM29.5371 23.6988V18.18H31.3263V23.5476C31.3263 25.866 29.9655 27.252 27.7479 27.252C25.5429 27.252 24.1821 25.866 24.1821 23.5476V18.18H25.9713V23.6988C25.9713 24.8832 26.6391 25.5762 27.7605 25.5762C28.8567 25.5762 29.5371 24.8832 29.5371 23.6988ZM33.5489 27V18.18H36.1445C37.9841 18.18 39.1055 19.0872 39.1055 20.574C39.1055 21.2922 38.7779 21.9096 38.1605 22.3128C39.0929 22.7286 39.6095 23.4846 39.6095 24.4044C39.6095 26.0172 38.3621 27 36.3335 27H33.5489ZM36.1823 19.6668H35.3381V21.6576H36.1823C36.8627 21.6576 37.2659 21.2922 37.2659 20.6496C37.2659 20.0322 36.8627 19.6668 36.1823 19.6668ZM36.4343 23.1444H35.3381V25.5132H36.4343C37.2659 25.5132 37.7699 25.0722 37.7699 24.3288C37.7699 23.5728 37.2659 23.1444 36.4343 23.1444ZM41.4455 27V18.18H43.2347V25.3746H46.5863V27H41.4455ZM48.1609 27V18.18H49.9501V27H48.1609ZM59.8116 26.7732C60.492 27.3906 61.0968 27.6174 61.6638 27.6174C61.8528 27.6174 62.1048 27.5922 62.2938 27.5166V29.0286C62.004 29.142 61.752 29.1924 61.3614 29.1924C60.3786 29.1924 59.4714 28.7892 58.602 28.0332L57.5562 27.1008C57.1782 27.2016 56.775 27.252 56.3466 27.252C53.562 27.252 51.6594 25.11 51.6594 22.59C51.6594 20.07 53.562 17.928 56.3466 17.928C59.1186 17.928 61.0212 20.07 61.0212 22.59C61.0212 24.0642 60.366 25.4124 59.2824 26.2692L59.8116 26.7732ZM56.3466 25.5762C57.9972 25.5762 59.1816 24.2784 59.1816 22.59C59.1816 20.9016 57.9972 19.6038 56.3466 19.6038C54.6834 19.6038 53.499 20.9016 53.499 22.59C53.499 24.2784 54.6834 25.5762 56.3466 25.5762ZM67.9375 23.6988V18.18H69.7267V23.5476C69.7267 25.866 68.3659 27.252 66.1483 27.252C63.9433 27.252 62.5825 25.866 62.5825 23.5476V18.18H64.3717V23.6988C64.3717 24.8832 65.0395 25.5762 66.1609 25.5762C67.2571 25.5762 67.9375 24.8832 67.9375 23.6988ZM71.9494 27V18.18H77.0902V19.6668H73.7386V21.7584H76.5862V23.2452H73.7386V25.5132H77.0902V27H71.9494Z" fill="#161616"/>
<path d="M1.2978 40V31.18H6.4386V32.6668H3.087V34.7584H5.9346V36.2452H3.087V40H1.2978ZM8.01321 40V31.18H10.7096C12.65 31.18 13.847 32.1754 13.847 33.8134C13.847 34.8844 13.3304 35.6782 12.4232 36.094L15.1826 40H13.0784L10.7222 36.4342H9.80241V40H8.01321ZM10.8104 32.6668H9.80241V34.9474H10.8104C11.5664 34.9474 12.0074 34.5064 12.0074 33.7882C12.0074 33.1204 11.5664 32.6668 10.8104 32.6668ZM15.5886 40L18.9276 31.18H21.2712L24.6102 40H22.7076L21.8634 37.7068H18.3354L17.4912 40H15.5886ZM18.8898 36.1822H21.309L20.0994 32.8684L18.8898 36.1822ZM25.9721 40V31.18H28.2653L32.2091 37.5556V31.18H33.9983V40H31.7051L27.7613 33.6244V40H25.9721ZM40.3963 38.5762C41.4043 38.5762 42.1981 38.0848 42.7021 37.3666L44.1133 38.4502C43.4329 39.3826 42.3745 40.0378 41.0893 40.2016L39.9931 42.0286H38.4055L39.5143 40.1764C37.2211 39.7732 35.7091 37.8328 35.7091 35.59C35.7091 33.07 37.6117 30.928 40.3963 30.928C41.9965 30.928 43.3069 31.6462 44.1133 32.7172L42.7021 33.8134C42.1981 33.0952 41.4043 32.6038 40.3963 32.6038C38.7331 32.6038 37.5487 33.9016 37.5487 35.59C37.5487 37.2784 38.7331 38.5762 40.3963 38.5762ZM44.4957 40L47.8347 31.18H50.1783L53.5173 40H51.6147L50.7705 37.7068H47.2425L46.3983 40H44.4957ZM47.7969 36.1822H50.2161L49.0065 32.8684L47.7969 36.1822ZM54.8793 40V31.18H56.6685V40H54.8793ZM58.34 38.7778L59.6378 37.5808C60.167 38.2612 60.8726 38.6644 61.5908 38.6644C62.2964 38.6644 62.7248 38.2864 62.7248 37.6564C62.7248 36.031 58.718 36.472 58.718 33.4858C58.718 32.0872 59.8772 30.928 61.5656 30.928C62.8886 30.928 63.8966 31.5202 64.6526 32.4148L63.3422 33.5992C62.8256 32.9314 62.246 32.4904 61.5782 32.4904C60.9482 32.4904 60.5324 32.8936 60.5324 33.4228C60.5324 35.023 64.5392 34.5694 64.5392 37.5934C64.514 39.2566 63.2162 40.252 61.6034 40.252C60.1166 40.252 59.1212 39.7102 58.34 38.7778ZM66.4152 40V31.18H71.556V32.6668H68.2044V34.7584H71.052V36.2452H68.2044V38.5132H71.556V40H66.4152Z" fill="#161616"/>
<defs>
<linearGradient id="paint0_linear_165_680" x1="0" y1="6" x2="33" y2="6" gradientUnits="userSpaceOnUse">
<stop stop-color="#000091"/>
<stop offset="0.5" stop-color="#000091"/>
<stop offset="0.5" stop-color="#E1000F"/>
<stop offset="1" stop-color="#E1000F"/>
</linearGradient>
<clipPath id="clip0_165_680">
<rect width="33" height="12" fill="white"/>
</clipPath>
<clipPath id="clip1_165_680">
<rect width="33" height="13.5" fill="white" transform="translate(0 -0.75)"/>
</clipPath>
</defs>
</svg>
