<svg width="64" height="55" viewBox="0 0 64 55" fill="none" xmlns="http://www.w3.org/2000/svg">
<g id="folder-256px">
<path id="Combined-Shape" fill-rule="evenodd" clip-rule="evenodd" d="M54.578 0.258057C55.5148 0.258057 56.2742 1.01673 56.2742 1.94925V49.1828C56.2742 50.0223 55.5843 50.6882 54.7571 50.6882H9.24297C8.40472 50.6882 7.72583 50.0366 7.72583 49.1828V4.21151C7.72583 3.27517 8.48306 2.51612 9.42006 2.51612H37.6972C38.3213 2.51612 39.1877 2.15832 39.6295 1.72001L40.3005 1.05417C40.7436 0.614486 41.6076 0.258057 42.2308 0.258057H54.578Z" fill="#79CAFF"/>
<path id="Combined-Shape_2" fill-rule="evenodd" clip-rule="evenodd" d="M54.5813 0.822571C55.5163 0.822571 56.2742 1.57901 56.2742 2.51532V48.98H7.72583V4.77551C7.72583 3.83946 8.48521 3.08064 9.41736 3.08064H38.2689C38.8914 3.08064 39.7567 2.72284 40.1984 2.28453L40.8694 1.61868C41.3126 1.179 42.1787 0.822571 42.7994 0.822571H54.5813Z" fill="#6AC4FF"/>
<path id="Rectangle-279" fill-rule="evenodd" clip-rule="evenodd" d="M4.90332 50.5V7.03347C4.90332 6.09748 5.65907 5.33871 6.59966 5.33871H57.4005C58.3374 5.33871 59.0969 6.09423 59.0969 7.03347V50.5H4.90332Z" fill="white"/>
<path id="Rectangle-279_2" fill-rule="evenodd" clip-rule="evenodd" d="M4.90332 49.5592V7.59454C4.90332 6.66047 5.65907 5.90326 6.59966 5.90326H57.4005C58.3374 5.90326 59.0969 6.66099 59.0969 7.59454V49.5592H4.90332Z" fill="#EDF5F6"/>
<path id="Rectangle-279_3" fill-rule="evenodd" clip-rule="evenodd" d="M2.64468 54.4516C1.70958 54.4516 0.951538 53.6916 0.951538 52.7561V9.8568C0.951538 8.92041 1.70871 8.16132 2.64468 8.16132H61.3552C62.2903 8.16132 63.0483 8.92138 63.0483 9.8568V52.7561C63.0483 53.6925 62.2911 54.4516 61.3552 54.4516H2.64468Z" fill="url(#paint0_linear_37_78)"/>
<path id="Rectangle-279_4" fill-rule="evenodd" clip-rule="evenodd" d="M2.64468 53.8871C1.70958 53.8871 0.951538 53.1316 0.951538 52.1923V10.4206C0.951538 9.48457 1.70871 8.7258 2.64468 8.7258H61.3552C62.2903 8.7258 63.0483 9.48132 63.0483 10.4206V52.1923C63.0483 53.1283 62.2911 53.8871 61.3552 53.8871H2.64468Z" fill="url(#paint1_linear_37_78)"/>
</g>
<defs>
<linearGradient id="paint0_linear_37_78" x1="3105.79" y1="8.16132" x2="3105.79" y2="4637.19" gradientUnits="userSpaceOnUse">
<stop stop-color="#99D5FC"/>
<stop offset="1" stop-color="#50B4F7"/>
</linearGradient>
<linearGradient id="paint1_linear_37_78" x1="3550.04" y1="8.7258" x2="3550.04" y2="4524.85" gradientUnits="userSpaceOnUse">
<stop stop-color="#6AC4FF"/>
<stop offset="0.962651" stop-color="#6CCDFC"/>
<stop offset="1" stop-color="#6AC4FF"/>
</linearGradient>
</defs>
</svg>
