<svg width="28" height="28" viewBox="0 0 28 28" fill="none" xmlns="http://www.w3.org/2000/svg">
<g id="user-home-symbolic" clip-path="url(#clip0_32_27)">
<path id="Vector" d="M14 1.75C13.6378 1.75 13.2824 1.87451 12.9817 2.09424L0.734356 11.4692C-0.0516052 12.0771 -0.236136 13.2417 0.324289 14.084C0.659176 14.582 1.18543 14.875 1.75269 14.8677V22.375C1.75269 25.4585 4.12424 28 7.00154 28H20.9985C23.8758 28 26.2473 25.5244 26.2473 22.375V14.8677C26.8146 14.875 27.3408 14.582 27.6757 14.084C28.2361 13.2417 28.0516 12.0771 27.2656 11.4692L15.0183 2.09424C14.7176 1.87451 14.3622 1.75 14 1.75ZM14 5.9248L22.7481 12.6191V22.375C22.7481 23.4297 21.9826 24.5 20.9985 24.5H17.5V16.75C17.5 15.71 16.7205 14.875 15.75 14.875H12.2504C11.2799 14.875 10.5008 15.71 10.5008 16.75L10.5 24.5H7.00154C6.01738 24.5 5.25192 23.4297 5.25192 22.375V12.6191L14 5.9248Z" fill="white"/>
</g>
<defs>
<clipPath id="clip0_32_27">
<rect width="28" height="28" fill="white"/>
</clipPath>
</defs>
</svg>
