<svg width="166" height="108" viewBox="0 0 166 108" fill="none" xmlns="http://www.w3.org/2000/svg">
<g filter="url(#filter0_bddi_183_30)">
<path fill-rule="evenodd" clip-rule="evenodd" d="M126 41.5C126 46.7467 121.747 51 116.5 51H49.5C44.2533 51 40 46.7467 40 41.5C40 36.2533 44.2533 32 49.5 32H116.5C121.747 32 126 36.2533 126 41.5ZM90.2485 53.0748C92.7717 51.001 96.1358 51.001 96.1358 51.001H69.2225C73.4277 51.001 74.2687 51.6923 75.9508 53.0748C77.6329 54.4574 79.3149 56.1856 80.997 57.9138L80.9971 57.9138C82.6791 59.642 83.5202 59.642 85.2023 57.9138C85.5533 57.5531 85.8678 57.2225 86.1685 56.9063C87.3087 55.7076 88.252 54.7158 90.2485 53.0748Z" fill="white" fill-opacity="0.25" shape-rendering="crispEdges"/>
</g>
<path d="M51.5 46H50.4922L52.2676 37.5977H53.2871L51.5 46ZM59.3867 41.5C59.3867 41.5586 59.3789 41.6387 59.3633 41.7402C59.3516 41.8418 59.334 41.9512 59.3105 42.0684C59.291 42.1855 59.2695 42.3027 59.2461 42.4199C59.2266 42.5332 59.207 42.6309 59.1875 42.7129L58.4902 46H57.5176L58.25 42.4844C58.2656 42.4219 58.2812 42.3496 58.2969 42.2676C58.3125 42.1855 58.3262 42.1035 58.3379 42.0215C58.3496 41.9395 58.3594 41.8652 58.3672 41.7988C58.375 41.7285 58.3789 41.6738 58.3789 41.6348C58.3789 41.3379 58.3066 41.1035 58.1621 40.9316C58.0215 40.7598 57.8105 40.6738 57.5293 40.6738C57.2715 40.6738 57.0156 40.75 56.7617 40.9023C56.5078 41.0547 56.2734 41.248 56.0586 41.4824C55.8438 41.7168 55.6582 41.9746 55.502 42.2559C55.3496 42.5371 55.2461 42.8086 55.1914 43.0703L54.5645 46H53.5918L54.5176 41.7168C54.5488 41.5645 54.5801 41.4062 54.6113 41.2422C54.6426 41.0742 54.6719 40.9141 54.6992 40.7617C54.7266 40.6055 54.75 40.4609 54.7695 40.3281C54.7891 40.1953 54.8047 40.0859 54.8164 40H55.7539C55.7344 40.1523 55.7109 40.3125 55.6836 40.4805C55.6562 40.6445 55.6328 40.7969 55.6133 40.9375C55.5898 41.1016 55.5645 41.2617 55.5371 41.418H55.5605C55.6973 41.2031 55.8477 41.002 56.0117 40.8145C56.1797 40.623 56.3594 40.457 56.5508 40.3164C56.7461 40.1719 56.9512 40.0586 57.166 39.9766C57.3848 39.8945 57.6133 39.8535 57.8516 39.8535C58.1172 39.8535 58.3457 39.8945 58.5371 39.9766C58.7285 40.0547 58.8867 40.166 59.0117 40.3105C59.1406 40.4551 59.2344 40.6289 59.293 40.832C59.3555 41.0352 59.3867 41.2578 59.3867 41.5ZM64.8301 37.9492C64.791 37.9297 64.7441 37.9121 64.6895 37.8965C64.6348 37.877 64.5762 37.8594 64.5137 37.8438C64.4512 37.8281 64.3848 37.8164 64.3145 37.8086C64.248 37.7969 64.1836 37.791 64.1211 37.791C63.8008 37.791 63.5527 37.8965 63.377 38.1074C63.2051 38.3145 63.0742 38.625 62.9844 39.0391L62.7676 40H64.1855L63.9922 40.8145H62.5742L61.0391 47.9922H60.0664L61.6133 40.8145H60.582L60.7637 40H61.7949L62.0352 38.8867C62.1094 38.543 62.2129 38.25 62.3457 38.0078C62.4785 37.7656 62.6367 37.5684 62.8203 37.416C63.0039 37.2637 63.2109 37.1523 63.4414 37.082C63.6758 37.0117 63.9316 36.9766 64.209 36.9766C64.3535 36.9766 64.4941 36.9883 64.6309 37.0117C64.7715 37.0352 64.8906 37.0625 64.9883 37.0938L64.8301 37.9492ZM69.5117 42.2207C69.5117 42.752 69.4355 43.2559 69.2832 43.7324C69.1348 44.209 68.918 44.627 68.6328 44.9863C68.3516 45.3418 68.0078 45.625 67.6016 45.8359C67.1992 46.043 66.7441 46.1465 66.2363 46.1465C65.8926 46.1465 65.582 46.0918 65.3047 45.9824C65.0312 45.873 64.7969 45.7168 64.6016 45.5137C64.4102 45.3066 64.2617 45.0586 64.1562 44.7695C64.0547 44.4766 64.0039 44.1465 64.0039 43.7793C64.0039 43.2285 64.082 42.7148 64.2383 42.2383C64.3984 41.7578 64.6211 41.3418 64.9062 40.9902C65.1953 40.6348 65.5391 40.3574 65.9375 40.1582C66.3398 39.9551 66.7832 39.8535 67.2676 39.8535C67.6074 39.8535 67.9141 39.9082 68.1875 40.0176C68.4648 40.127 68.7012 40.2852 68.8965 40.4922C69.0918 40.6953 69.2422 40.9434 69.3477 41.2363C69.457 41.5254 69.5117 41.8535 69.5117 42.2207ZM68.5273 42.2676C68.5273 42.0137 68.4961 41.7891 68.4336 41.5938C68.3711 41.3945 68.2832 41.2285 68.1699 41.0957C68.0566 40.959 67.9199 40.8555 67.7598 40.7852C67.5996 40.7109 67.4199 40.6738 67.2207 40.6738C66.877 40.6738 66.5664 40.7617 66.2891 40.9375C66.0117 41.1133 65.7773 41.3457 65.5859 41.6348C65.3945 41.9199 65.2461 42.2461 65.1406 42.6133C65.0391 42.9766 64.9883 43.3496 64.9883 43.7324C64.9883 43.9746 65.0176 44.1953 65.0762 44.3945C65.1387 44.5898 65.2246 44.7578 65.334 44.8984C65.4473 45.0352 65.584 45.1406 65.7441 45.2148C65.9082 45.2891 66.0918 45.3262 66.2949 45.3262C66.6426 45.3262 66.9551 45.2402 67.2324 45.0684C67.5098 44.8926 67.7441 44.6621 67.9355 44.377C68.127 44.0879 68.2734 43.7598 68.375 43.3926C68.4766 43.0254 68.5273 42.6504 68.5273 42.2676ZM74.457 41.0195H74.4336C74.3555 40.9727 74.252 40.9277 74.123 40.8848C73.998 40.8379 73.873 40.8145 73.748 40.8145C73.5215 40.8145 73.3047 40.8887 73.0977 41.0371C72.8906 41.1816 72.7012 41.375 72.5293 41.6172C72.3613 41.8555 72.2129 42.1289 72.084 42.4375C71.959 42.7461 71.8613 43.0625 71.791 43.3867L71.2285 46H70.2676L71.1113 42.0156C71.1465 41.8516 71.1816 41.6797 71.2168 41.5C71.252 41.3203 71.2832 41.1406 71.3105 40.9609C71.3418 40.7812 71.3691 40.6094 71.3926 40.4453C71.416 40.2812 71.4336 40.1328 71.4453 40H72.3945C72.3828 40.1172 72.3691 40.2422 72.3535 40.375C72.3379 40.5039 72.3223 40.6309 72.3066 40.7559C72.291 40.877 72.2754 40.9883 72.2598 41.0898C72.2441 41.1875 72.2324 41.2637 72.2246 41.3184H72.248C72.373 41.0957 72.5 40.8945 72.6289 40.7148C72.7578 40.5352 72.8926 40.3828 73.0332 40.2578C73.1777 40.1289 73.3301 40.0293 73.4902 39.959C73.6504 39.8887 73.8242 39.8535 74.0117 39.8535C74.1211 39.8535 74.2285 39.8652 74.334 39.8887C74.4434 39.9082 74.541 39.9297 74.627 39.9531L74.457 41.0195ZM83.9199 41.5117C83.9199 41.5625 83.9121 41.6406 83.8965 41.7461C83.8848 41.8477 83.8672 41.957 83.8438 42.0742C83.8242 42.1914 83.8027 42.3086 83.7793 42.4258C83.7598 42.5391 83.7422 42.6348 83.7266 42.7129L83.0176 46H82.0566L82.7891 42.4844C82.8047 42.418 82.8203 42.3438 82.8359 42.2617C82.8516 42.1797 82.8652 42.0996 82.877 42.0215C82.8926 41.9395 82.9043 41.8652 82.9121 41.7988C82.9199 41.7285 82.9238 41.6738 82.9238 41.6348C82.9238 41.3262 82.8574 41.0898 82.7246 40.9258C82.5918 40.7578 82.3848 40.6738 82.1035 40.6738C81.9551 40.6738 81.8008 40.709 81.6406 40.7793C81.4844 40.8457 81.3301 40.9375 81.1777 41.0547C81.0293 41.1719 80.8848 41.3086 80.7441 41.4648C80.6074 41.6211 80.4805 41.7891 80.3633 41.9688C80.25 42.1445 80.1523 42.3262 80.0703 42.5137C79.9883 42.6973 79.9277 42.8789 79.8887 43.0586L79.2617 46H78.2891L79.0332 42.4844C79.0488 42.418 79.0645 42.3438 79.0801 42.2617C79.0957 42.1797 79.1094 42.0996 79.1211 42.0215C79.1367 41.9395 79.1484 41.8652 79.1562 41.7988C79.1641 41.7285 79.168 41.6738 79.168 41.6348C79.168 41.3262 79.0996 41.0898 78.9629 40.9258C78.8262 40.7578 78.6211 40.6738 78.3477 40.6738C78.1953 40.6738 78.0391 40.709 77.8789 40.7793C77.7188 40.8457 77.5625 40.9395 77.4102 41.0605C77.2578 41.1777 77.1113 41.3164 76.9707 41.4766C76.834 41.6328 76.707 41.8008 76.5898 41.9805C76.4766 42.1562 76.3789 42.3379 76.2969 42.5254C76.2188 42.709 76.1602 42.8906 76.1211 43.0703L75.4941 46H74.5215L75.4473 41.7168C75.4785 41.5645 75.5098 41.4062 75.541 41.2422C75.5723 41.0742 75.6016 40.9141 75.6289 40.7617C75.6562 40.6055 75.6797 40.4609 75.6992 40.3281C75.7188 40.1953 75.7344 40.0859 75.7461 40H76.6836C76.6641 40.1523 76.6406 40.3125 76.6133 40.4805C76.5859 40.6445 76.5625 40.7969 76.543 40.9375C76.5195 41.1016 76.4941 41.2617 76.4668 41.418H76.4902C76.6309 41.1914 76.7832 40.9824 76.9473 40.791C77.1113 40.5996 77.2852 40.4355 77.4688 40.2988C77.6523 40.1582 77.8438 40.0488 78.043 39.9707C78.2422 39.8926 78.4492 39.8535 78.6641 39.8535C78.9141 39.8535 79.1289 39.8906 79.3086 39.9648C79.4883 40.0391 79.6367 40.1445 79.7539 40.2812C79.875 40.4141 79.9668 40.5762 80.0293 40.7676C80.0918 40.959 80.1289 41.1719 80.1406 41.4062C80.2852 41.1875 80.4395 40.9844 80.6035 40.7969C80.7715 40.6055 80.9492 40.4414 81.1367 40.3047C81.3281 40.1641 81.5293 40.0547 81.7402 39.9766C81.9551 39.8945 82.1816 39.8535 82.4199 39.8535C82.9199 39.8535 83.2949 40 83.5449 40.293C83.7949 40.582 83.9199 40.9883 83.9199 41.5117ZM89.8379 44.0781C89.8066 44.2266 89.7754 44.3945 89.7441 44.582C89.7168 44.7656 89.6914 44.9492 89.668 45.1328C89.6484 45.3125 89.6309 45.4805 89.6152 45.6367C89.6035 45.793 89.5977 45.9141 89.5977 46H88.6016C88.6055 45.9219 88.6113 45.8281 88.6191 45.7188C88.627 45.6094 88.6367 45.4961 88.6484 45.3789C88.6641 45.2617 88.6777 45.1465 88.6895 45.0332C88.7051 44.9199 88.7207 44.8223 88.7363 44.7402H88.7129C88.5918 44.9316 88.4688 45.1133 88.3438 45.2852C88.2188 45.4531 88.0801 45.6016 87.9277 45.7305C87.7754 45.8594 87.6055 45.9609 87.418 46.0352C87.2305 46.1094 87.0098 46.1465 86.7559 46.1465C86.4941 46.1465 86.2539 46.0996 86.0352 46.0059C85.8203 45.9121 85.6348 45.7734 85.4785 45.5898C85.3223 45.4023 85.2012 45.1699 85.1152 44.8926C85.0332 44.6113 84.9922 44.2852 84.9922 43.9141C84.9922 43.6875 85.0156 43.4297 85.0625 43.1406C85.1094 42.8516 85.1875 42.5566 85.2969 42.2559C85.4102 41.9551 85.5586 41.6621 85.7422 41.377C85.9297 41.0879 86.1602 40.8301 86.4336 40.6035C86.7109 40.377 87.0371 40.1953 87.4121 40.0586C87.7871 39.9219 88.2207 39.8535 88.7129 39.8535C89.0254 39.8535 89.3477 39.877 89.6797 39.9238C90.0117 39.9707 90.3418 40.0273 90.6699 40.0938L89.8379 44.0781ZM89.5625 40.791C89.4258 40.7598 89.2656 40.7324 89.082 40.709C88.8984 40.6855 88.7266 40.6738 88.5664 40.6738C88.2266 40.6738 87.9258 40.7285 87.6641 40.8379C87.4062 40.9434 87.1816 41.084 86.9902 41.2598C86.7988 41.4316 86.6367 41.6309 86.5039 41.8574C86.375 42.084 86.2715 42.3164 86.1934 42.5547C86.1152 42.7891 86.0586 43.0215 86.0234 43.252C85.9922 43.4824 85.9766 43.6914 85.9766 43.8789C85.9766 44.1016 85.9961 44.3027 86.0352 44.4824C86.0742 44.6582 86.1348 44.8086 86.2168 44.9336C86.3027 45.0586 86.4102 45.1562 86.5391 45.2266C86.6719 45.293 86.8281 45.3262 87.0078 45.3262C87.2031 45.3262 87.3848 45.2871 87.5527 45.209C87.7246 45.127 87.8848 45.0176 88.0332 44.8809C88.1816 44.7441 88.3164 44.5859 88.4375 44.4062C88.5586 44.2266 88.668 44.0371 88.7656 43.8379C88.8633 43.6348 88.9453 43.4297 89.0117 43.2227C89.082 43.0117 89.1387 42.8086 89.1816 42.6133L89.5625 40.791ZM95.082 40.8145H93.5703L92.8965 43.9961C92.873 44.1172 92.8496 44.248 92.8262 44.3887C92.8027 44.5293 92.791 44.6426 92.791 44.7285C92.791 44.9277 92.834 45.0723 92.9199 45.1621C93.0098 45.248 93.1504 45.291 93.3418 45.291C93.3887 45.291 93.4492 45.2832 93.5234 45.2676C93.5977 45.252 93.6738 45.2324 93.752 45.209C93.8301 45.1855 93.9062 45.1602 93.9805 45.1328C94.0586 45.1016 94.127 45.0742 94.1855 45.0508L94.0039 45.8945C93.8672 45.9531 93.7109 46.002 93.5352 46.041C93.3633 46.084 93.1992 46.1055 93.043 46.1055C92.8203 46.1055 92.6309 46.0762 92.4746 46.0176C92.3184 45.9629 92.1895 45.8828 92.0879 45.7773C91.9902 45.6719 91.918 45.5449 91.8711 45.3965C91.8281 45.2441 91.8066 45.0742 91.8066 44.8867C91.8066 44.7734 91.8164 44.6426 91.8359 44.4941C91.8594 44.3418 91.8867 44.2031 91.918 44.0781L92.6094 40.8145H91.6133L91.7949 40H92.7793L93.0898 38.5352C93.1055 38.5273 93.1641 38.5098 93.2656 38.4824C93.3711 38.4512 93.4844 38.418 93.6055 38.3828C93.7305 38.3438 93.8438 38.3086 93.9453 38.2773C94.0508 38.2461 94.1094 38.2285 94.1211 38.2246L93.752 40H95.2637L95.082 40.8145ZM97.3555 45.9766C97.2578 46.0078 97.1465 46.0332 97.0215 46.0527C96.9004 46.0723 96.7793 46.082 96.6582 46.082C96.2637 46.082 95.9688 45.9844 95.7734 45.7891C95.5781 45.5898 95.4805 45.3242 95.4805 44.9922C95.4805 44.8945 95.4902 44.7793 95.5098 44.6465C95.5293 44.5137 95.5605 44.3496 95.6035 44.1543L96.4766 40H97.4492L96.5703 44.1777C96.5352 44.3418 96.5098 44.4688 96.4941 44.5586C96.4824 44.6484 96.4766 44.7246 96.4766 44.7871C96.4766 44.9473 96.5195 45.0703 96.6055 45.1562C96.6953 45.2383 96.8359 45.2793 97.0273 45.2793C97.1289 45.2793 97.2168 45.2734 97.291 45.2617C97.3691 45.25 97.4414 45.2324 97.5078 45.209L97.3555 45.9766ZM98.041 37.8613C98.041 38.0371 97.9805 38.1875 97.8594 38.3125C97.7422 38.4375 97.5957 38.5 97.4199 38.5C97.248 38.5 97.0977 38.4395 96.9688 38.3184C96.8438 38.1934 96.7812 38.041 96.7812 37.8613C96.7812 37.6816 96.8438 37.5352 96.9688 37.4219C97.0977 37.3086 97.248 37.252 97.4199 37.252C97.5918 37.252 97.7383 37.3105 97.8594 37.4277C97.9805 37.541 98.041 37.6855 98.041 37.8613ZM103.988 42.2207C103.988 42.752 103.912 43.2559 103.76 43.7324C103.611 44.209 103.395 44.627 103.109 44.9863C102.828 45.3418 102.484 45.625 102.078 45.8359C101.676 46.043 101.221 46.1465 100.713 46.1465C100.369 46.1465 100.059 46.0918 99.7812 45.9824C99.5078 45.873 99.2734 45.7168 99.0781 45.5137C98.8867 45.3066 98.7383 45.0586 98.6328 44.7695C98.5312 44.4766 98.4805 44.1465 98.4805 43.7793C98.4805 43.2285 98.5586 42.7148 98.7148 42.2383C98.875 41.7578 99.0977 41.3418 99.3828 40.9902C99.6719 40.6348 100.016 40.3574 100.414 40.1582C100.816 39.9551 101.26 39.8535 101.744 39.8535C102.084 39.8535 102.391 39.9082 102.664 40.0176C102.941 40.127 103.178 40.2852 103.373 40.4922C103.568 40.6953 103.719 40.9434 103.824 41.2363C103.934 41.5254 103.988 41.8535 103.988 42.2207ZM103.004 42.2676C103.004 42.0137 102.973 41.7891 102.91 41.5938C102.848 41.3945 102.76 41.2285 102.646 41.0957C102.533 40.959 102.396 40.8555 102.236 40.7852C102.076 40.7109 101.896 40.6738 101.697 40.6738C101.354 40.6738 101.043 40.7617 100.766 40.9375C100.488 41.1133 100.254 41.3457 100.062 41.6348C99.8711 41.9199 99.7227 42.2461 99.6172 42.6133C99.5156 42.9766 99.4648 43.3496 99.4648 43.7324C99.4648 43.9746 99.4941 44.1953 99.5527 44.3945C99.6152 44.5898 99.7012 44.7578 99.8105 44.8984C99.9238 45.0352 100.061 45.1406 100.221 45.2148C100.385 45.2891 100.568 45.3262 100.771 45.3262C101.119 45.3262 101.432 45.2402 101.709 45.0684C101.986 44.8926 102.221 44.6621 102.412 44.377C102.604 44.0879 102.75 43.7598 102.852 43.3926C102.953 43.0254 103.004 42.6504 103.004 42.2676ZM110.574 41.5C110.574 41.5586 110.566 41.6387 110.551 41.7402C110.539 41.8418 110.521 41.9512 110.498 42.0684C110.479 42.1855 110.457 42.3027 110.434 42.4199C110.414 42.5332 110.395 42.6309 110.375 42.7129L109.678 46H108.705L109.438 42.4844C109.453 42.4219 109.469 42.3496 109.484 42.2676C109.5 42.1855 109.514 42.1035 109.525 42.0215C109.537 41.9395 109.547 41.8652 109.555 41.7988C109.562 41.7285 109.566 41.6738 109.566 41.6348C109.566 41.3379 109.494 41.1035 109.35 40.9316C109.209 40.7598 108.998 40.6738 108.717 40.6738C108.459 40.6738 108.203 40.75 107.949 40.9023C107.695 41.0547 107.461 41.248 107.246 41.4824C107.031 41.7168 106.846 41.9746 106.689 42.2559C106.537 42.5371 106.434 42.8086 106.379 43.0703L105.752 46H104.779L105.705 41.7168C105.736 41.5645 105.768 41.4062 105.799 41.2422C105.83 41.0742 105.859 40.9141 105.887 40.7617C105.914 40.6055 105.938 40.4609 105.957 40.3281C105.977 40.1953 105.992 40.0859 106.004 40H106.941C106.922 40.1523 106.898 40.3125 106.871 40.4805C106.844 40.6445 106.82 40.7969 106.801 40.9375C106.777 41.1016 106.752 41.2617 106.725 41.418H106.748C106.885 41.2031 107.035 41.002 107.199 40.8145C107.367 40.623 107.547 40.457 107.738 40.3164C107.934 40.1719 108.139 40.0586 108.354 39.9766C108.572 39.8945 108.801 39.8535 109.039 39.8535C109.305 39.8535 109.533 39.8945 109.725 39.9766C109.916 40.0547 110.074 40.166 110.199 40.3105C110.328 40.4551 110.422 40.6289 110.48 40.832C110.543 41.0352 110.574 41.2578 110.574 41.5ZM115.443 41.0547C115.268 40.9414 115.07 40.8496 114.852 40.7793C114.633 40.709 114.414 40.6738 114.195 40.6738C113.828 40.6738 113.543 40.7578 113.34 40.9258C113.141 41.0938 113.041 41.3164 113.041 41.5938C113.041 41.707 113.059 41.8105 113.094 41.9043C113.133 41.998 113.188 42.0879 113.258 42.1738C113.332 42.2559 113.424 42.3359 113.533 42.4141C113.646 42.4922 113.775 42.5762 113.92 42.666C114.357 42.9199 114.672 43.1816 114.863 43.4512C115.059 43.7168 115.156 44.0176 115.156 44.3535C115.156 44.5801 115.113 44.8027 115.027 45.0215C114.945 45.2363 114.812 45.4277 114.629 45.5957C114.445 45.7598 114.207 45.8926 113.914 45.9941C113.625 46.0957 113.271 46.1465 112.854 46.1465C112.736 46.1465 112.607 46.1387 112.467 46.123C112.326 46.1074 112.184 46.084 112.039 46.0527C111.898 46.0215 111.762 45.9844 111.629 45.9414C111.5 45.8945 111.387 45.8418 111.289 45.7832L111.482 44.8691C111.561 44.9238 111.656 44.9785 111.77 45.0332C111.887 45.0879 112.012 45.1367 112.145 45.1797C112.281 45.2227 112.422 45.2578 112.566 45.2852C112.715 45.3125 112.861 45.3262 113.006 45.3262C113.396 45.3262 113.688 45.248 113.879 45.0918C114.074 44.9355 114.172 44.7188 114.172 44.4414C114.172 44.3398 114.156 44.2461 114.125 44.1602C114.098 44.0742 114.047 43.9883 113.973 43.9023C113.898 43.8164 113.801 43.7305 113.68 43.6445C113.559 43.5547 113.406 43.4551 113.223 43.3457C112.824 43.1035 112.529 42.8516 112.338 42.5898C112.15 42.3242 112.057 42.0254 112.057 41.6934C112.057 41.4512 112.102 41.2207 112.191 41.002C112.281 40.7793 112.414 40.584 112.59 40.416C112.77 40.2441 112.994 40.1074 113.264 40.0059C113.533 39.9043 113.848 39.8535 114.207 39.8535C114.488 39.8535 114.754 39.8809 115.004 39.9355C115.258 39.9902 115.473 40.0605 115.648 40.1465L115.443 41.0547Z" fill="white"/>
<defs>
<filter id="filter0_bddi_183_30" x="-41.5485" y="-49.5485" width="249.097" height="190.307" filterUnits="userSpaceOnUse" color-interpolation-filters="sRGB">
<feFlood flood-opacity="0" result="BackgroundImageFix"/>
<feGaussianBlur in="BackgroundImageFix" stdDeviation="40.7742"/>
<feComposite in2="SourceAlpha" operator="in" result="effect1_backgroundBlur_183_30"/>
<feColorMatrix in="SourceAlpha" type="matrix" values="0 0 0 0 0 0 0 0 0 0 0 0 0 0 0 0 0 0 127 0" result="hardAlpha"/>
<feOffset/>
<feGaussianBlur stdDeviation="1.5"/>
<feComposite in2="hardAlpha" operator="out"/>
<feColorMatrix type="matrix" values="0 0 0 0 0 0 0 0 0 0 0 0 0 0 0 0 0 0 0.55 0"/>
<feBlend mode="normal" in2="effect1_backgroundBlur_183_30" result="effect2_dropShadow_183_30"/>
<feColorMatrix in="SourceAlpha" type="matrix" values="0 0 0 0 0 0 0 0 0 0 0 0 0 0 0 0 0 0 127 0" result="hardAlpha"/>
<feOffset dy="8"/>
<feGaussianBlur stdDeviation="20"/>
<feComposite in2="hardAlpha" operator="out"/>
<feColorMatrix type="matrix" values="0 0 0 0 0 0 0 0 0 0 0 0 0 0 0 0 0 0 0.25 0"/>
<feBlend mode="normal" in2="effect2_dropShadow_183_30" result="effect3_dropShadow_183_30"/>
<feBlend mode="normal" in="SourceGraphic" in2="effect3_dropShadow_183_30" result="shape"/>
<feColorMatrix in="SourceAlpha" type="matrix" values="0 0 0 0 0 0 0 0 0 0 0 0 0 0 0 0 0 0 127 0" result="hardAlpha"/>
<feOffset/>
<feGaussianBlur stdDeviation="1.5"/>
<feComposite in2="hardAlpha" operator="arithmetic" k2="-1" k3="1"/>
<feColorMatrix type="matrix" values="0 0 0 0 1 0 0 0 0 1 0 0 0 0 1 0 0 0 0.1 0"/>
<feBlend mode="normal" in2="shape" result="effect4_innerShadow_183_30"/>
</filter>
</defs>
</svg>
