<svg width="69" height="65" viewBox="0 0 69 65" fill="none" xmlns="http://www.w3.org/2000/svg">
<g id="Vector">
<path d="M34.2329 1.00698C32.0246 0.892476 29.8818 2.18471 28.2133 5.06362L2.04145 53.6124C-0.19952 57.6527 2.23773 63.4269 6.62152 63.4269H61.7133C65.819 63.4269 69.6794 58.5688 66.8168 53.6124L40.3832 5.32534C38.7148 2.62636 36.4411 1.12148 34.2329 1.00698ZM38.8129 17.3644V38.3019C38.8456 40.5102 36.8337 42.4894 34.6254 42.4894C32.4172 42.4894 30.4052 40.5102 30.4379 38.3019V17.3644H38.8129ZM34.6254 46.6769C36.9318 46.6769 38.8129 48.558 38.8129 50.8644C38.8129 53.1708 36.9318 55.0519 34.6254 55.0519C32.319 55.0519 30.4379 53.1708 30.4379 50.8644C30.4379 48.558 32.319 46.6769 34.6254 46.6769Z" fill="#EA2A00" fill-opacity="0.75"/>
<path d="M27.7807 4.81291L27.7769 4.81957L27.7732 4.82636L1.6042 53.3699C1.60369 53.3708 1.60319 53.3717 1.60268 53.3727C0.398313 55.5463 0.457697 58.1662 1.39127 60.24C2.32616 62.3168 4.18235 63.9269 6.62152 63.9269H61.7133C66.1692 63.9269 70.3188 58.6838 67.2527 53.3673L40.8218 5.08525L40.8155 5.07366L40.8085 5.06243C39.0835 2.27193 36.6802 0.633205 34.2587 0.507649C31.8027 0.380297 29.5085 1.83169 27.7807 4.81291ZM30.9379 38.3019V17.8644H38.3129L38.3129 38.3019L38.313 38.3093C38.3414 40.2291 36.5642 41.9894 34.6254 41.9894C32.6866 41.9894 30.9094 40.2291 30.9379 38.3093L30.9379 38.3093V38.3019ZM34.6254 47.1769C36.6557 47.1769 38.3129 48.8342 38.3129 50.8644C38.3129 52.8947 36.6557 54.5519 34.6254 54.5519C32.5952 54.5519 30.9379 52.8947 30.9379 50.8644C30.9379 48.8342 32.5952 47.1769 34.6254 47.1769Z" stroke="#FF360A" stroke-opacity="0.75"/>
</g>
</svg>
